<svg xmlns="http://www.w3.org/2000/svg" viewBox="0 0 51.27 38.3"><defs><style>.cls-1,.cls-3{fill:#85a764;}.cls-2{fill:#9fc47e;}.cls-3{fill-rule:evenodd;}.cls-4{fill:#f3d378;}.cls-5{fill:#dea627;}.cls-6{fill:#2a2d3f;}.cls-7{font-size:7px;fill:#fff;font-family:Poppins-Light, Poppins Light;font-weight:300;}</style></defs><g id="Layer_2" data-name="Layer 2"><g id="OBJECTS"><rect class="cls-1" y="10.72" width="46.58" height="21.86"/><rect class="cls-2" x="2.71" y="13.36" width="41.16" height="16.58"/><path class="cls-3" d="M7.87,13.36a5.16,5.16,0,0,1-5.16,5.16V13.36Z"/><path class="cls-3" d="M38.72,13.36a5.16,5.16,0,0,0,5.15,5.16V13.36Z"/><path class="cls-3" d="M7.87,30.36a5.16,5.16,0,0,0-5.16-5.15v5.15Z"/><path class="cls-3" d="M38.72,30.36a5.16,5.16,0,0,1,5.15-5.15v5.15Z"/><circle class="cls-1" cx="23.29" cy="21.65" r="6.07" transform="translate(1.59 44.9) rotate(-89.88)"/><rect class="cls-1" width="46.58" height="10.45"/><rect class="cls-2" y="9.95" width="46.58" height="1"/><rect class="cls-2" y="7.26" width="46.58" height="1"/><rect class="cls-2" y="4.57" width="46.58" height="1"/><rect class="cls-2" y="1.89" width="46.58" height="1"/><rect class="cls-4" x="21.13" y="5.82" width="4.31" height="26.76"/><rect class="cls-5" x="21.13" width="4.31" height="10.72"/><circle class="cls-6" cx="45.55" cy="32.58" r="5.72"/><text class="cls-7" transform="translate(43.46 34.67)">+</text></g></g></svg>