<svg xmlns="http://www.w3.org/2000/svg" viewBox="0 0 51.97 32.91"><defs><style>.cls-1{fill:#cfcfcf;}.cls-2{fill:#e1e1e1;}</style></defs><g id="Layer_2" data-name="Layer 2"><g id="OBJECTS"><path class="cls-1" d="M52,31.83a1.08,1.08,0,0,1-1.09,1.08H1.09A1.08,1.08,0,0,1,0,31.83H0a1.09,1.09,0,0,1,1.09-1.09H50.88A1.09,1.09,0,0,1,52,31.83Z"/><path class="cls-1" d="M25.85,5A24,24,0,0,0,2,29.19L50,28.91A24,24,0,0,0,25.85,5Z"/><path class="cls-1" d="M25.82,0A4.93,4.93,0,0,0,21,5.05,4.82,4.82,0,1,0,30.66,5,4.92,4.92,0,0,0,25.82,0Zm.05,8.53A3.45,3.45,0,0,1,22.47,5a3.38,3.38,0,1,1,6.75,0A3.44,3.44,0,0,1,25.87,8.53Z"/><path class="cls-2" d="M43.7,29l6.32,0A24.05,24.05,0,0,0,21,5.54,27.57,27.57,0,0,1,43.7,29Z"/></g></g></svg>