<svg xmlns="http://www.w3.org/2000/svg" viewBox="0 0 31.14 51.66"><defs><style>.cls-1{fill:#eaa952;}.cls-2{fill:#edbb72;}.cls-3{fill:#f0c88c;}.cls-4{fill:#c15e3f;}.cls-5{fill:#cb7d63;}.cls-6{fill:#f1ccbc;}</style></defs><g id="Layer_2" data-name="Layer 2"><g id="OBJECTS"><rect class="cls-1" x="10.11" y="17.55" width="28.31" height="5.68" transform="translate(-2.35 37.6) rotate(-72.93)"/><rect class="cls-2" x="6.8" y="21.29" width="32.63" height="5.68" transform="translate(-6.75 39.13) rotate(-72.89)"/><rect class="cls-3" x="14.27" y="16.55" width="18.91" height="1.62" transform="translate(0.37 35.21) rotate(-73.59)"/><rect class="cls-1" x="5.38" y="11.49" width="28.31" height="5.68" transform="translate(3.75 32.72) rotate(-85.62)"/><rect class="cls-2" x="2.92" y="15.39" width="32.63" height="5.68" transform="translate(-0.43 36.01) rotate(-85.56)"/><rect class="cls-3" x="8.89" y="10.69" width="18.91" height="1.62" transform="translate(5.67 29.05) rotate(-86.24)"/><rect class="cls-1" x="1.68" y="17.69" width="28.31" height="5.68" transform="translate(-5.75 34.89) rotate(-85.98)"/><rect class="cls-3" x="-0.75" y="21.6" width="32.63" height="5.68" transform="translate(-9.92 38.23) rotate(-85.94)"/><rect class="cls-3" x="5.17" y="16.89" width="18.91" height="1.62" transform="translate(-3.91 31.26) rotate(-86.62)"/><rect class="cls-1" x="5.33" y="1.91" width="5.68" height="28.31" transform="matrix(0.99, -0.15, 0.15, 0.99, -2.32, 1.41)"/><rect class="cls-2" x="5.92" y="3.63" width="5.68" height="32.63" transform="translate(-2.89 1.53) rotate(-8.61)"/><polygon class="cls-3" points="8.69 22.78 7.09 23.04 4.04 4.38 5.64 4.11 8.69 22.78"/><rect class="cls-1" x="3.27" y="10.61" width="5.68" height="28.31" transform="translate(-5.69 2.15) rotate(-13.7)"/><rect class="cls-2" x="4.2" y="12.25" width="5.68" height="32.63" transform="translate(-6.56 2.48) rotate(-13.69)"/><rect class="cls-3" x="2.81" y="14.11" width="2.75" height="18.91" transform="translate(-5.21 1.55) rotate(-13.06)"/><path class="cls-4" d="M26,23.88s-4.59,5.94-10.39,5.94H15c-5.79,0-10.38-5.94-10.38-5.94H.39L7.17,51.66H23.39l6.79-27.78Z"/><path class="cls-5" d="M25,23.92s-4.17,5.5-9.44,5.5H15c-5.27,0-9.45-5.5-9.45-5.5H1.74l6.17,25.7H22.66l6.17-25.7Z"/><path class="cls-6" d="M4.62,24.7l0,0h.93S9.76,30.25,15,30.25l.25,0,.26,0c5.27,0,9.44-5.51,9.44-5.51h.93l0,0h4l.2-.82H26l0,0H25s-4.17,5.5-9.44,5.5H15c-5.27,0-9.45-5.5-9.45-5.5H4.65l0,0H.39l.2.82Z"/></g></g></svg>