<svg xmlns="http://www.w3.org/2000/svg" viewBox="0 0 11.87 11.13"><defs><style>.cls-1{fill:none;stroke:#2a2d3f;stroke-linecap:round;stroke-linejoin:round;}.cls-2{fill:#2a2d3f;}</style></defs><g id="Layer_2" data-name="Layer 2"><g id="OBJECTS"><polygon class="cls-1" points="10.16 7.41 4.45 7.41 3.23 2.6 11.37 2.6 10.16 7.41"/><polyline class="cls-1" points="3.23 2.6 2.7 0.5 0.5 0.5"/><path class="cls-2" d="M5.47,10.29a.84.84,0,1,0-.84.84A.84.84,0,0,0,5.47,10.29Z"/><path class="cls-2" d="M10.81,10.29A.84.84,0,0,0,10,9.46a.83.83,0,0,0-.83.83.84.84,0,0,0,.83.84A.85.85,0,0,0,10.81,10.29Z"/></g></g></svg>