<svg xmlns="http://www.w3.org/2000/svg" viewBox="0 0 20.56 64.16"><defs><style>.cls-1{fill:#e2e5da;}.cls-2{fill:#e7eae1;}.cls-3{fill:#cdd760;}.cls-4{fill:#b4c039;}.cls-5{fill:#cb7d63;}.cls-6{fill:#e0e69b;}</style></defs><g id="Layer_2" data-name="Layer 2"><g id="OBJECTS"><rect class="cls-1" y="36.79" width="9.99" height="23.88"/><polygon class="cls-2" points="9.99 36.79 9.99 36.79 9.99 60.67 9.99 60.67 19.98 60.67 19.98 36.79 9.99 36.79"/><rect class="cls-1" y="19.28" width="9.99" height="17.52"/><rect class="cls-2" x="9.99" y="60.67" width="9.99" height="3.49"/><rect class="cls-1" y="60.67" width="9.99" height="3.49"/><rect class="cls-2" x="9.99" y="19.28" width="9.99" height="17.52"/><rect class="cls-3" x="9.99" y="28.74" width="7.89" height="31.93"/><rect class="cls-4" x="2.1" y="28.74" width="7.89" height="31.93"/><rect class="cls-5" x="9.93" y="8.69" width="2.7" height="20.05"/><rect class="cls-5" x="9.08" y="3.96" width="12.32" height="2.7" transform="translate(0.72 12.35) rotate(-45.05)"/><path class="cls-6" d="M15.58,40.19a1.65,1.65,0,1,1-1.65-1.65A1.64,1.64,0,0,1,15.58,40.19Z"/><path class="cls-6" d="M9.34,48.27a1.65,1.65,0,1,1-1.65-1.64A1.65,1.65,0,0,1,9.34,48.27Z"/><path class="cls-6" d="M13.31,54.53a.94.94,0,1,1-.94-.94A.94.94,0,0,1,13.31,54.53Z"/><path class="cls-6" d="M8.63,35.85a.94.94,0,1,1-.94-.94A.94.94,0,0,1,8.63,35.85Z"/></g></g></svg>