<svg xmlns="http://www.w3.org/2000/svg" viewBox="0 0 18.17 37.72"><defs><style>.cls-1{fill:#ffdeb7;}.cls-2{fill:#e5bba6;}.cls-3{fill:#dcb099;}.cls-4{fill:#e0e0e0;}.cls-5{fill:#e6e6e6;}.cls-6{fill:#bf5620;}</style></defs><g id="Layer_2" data-name="Layer 2"><g id="Ñëîé_1" data-name="Ñëîé 1"><rect class="cls-1" x="10.72" y="5.42" width="1.67" height="7.63"/><rect class="cls-1" x="10.2" y="2.45" width="7.63" height="1.67" transform="translate(1.78 10.88) rotate(-45.03)"/><polygon class="cls-2" points="9.08 37.72 13.83 37.72 16.75 16.06 9.08 16.06 9.08 37.72"/><polygon class="cls-3" points="1.42 16.06 4.34 37.72 9.08 37.72 9.08 16.06 1.42 16.06"/><polygon class="cls-4" points="9.08 11.98 0.87 11.98 0 11.98 0 16.06 1.42 16.06 9.08 16.06 9.08 11.98"/><polygon class="cls-5" points="17.3 11.98 9.08 11.98 9.08 16.06 16.75 16.06 18.17 16.06 18.17 11.98 17.3 11.98"/><path class="cls-6" d="M10.7,20.78a4.47,4.47,0,0,0-5.34,1c1.24,0,2.61.91,4.08,2.87a3.2,3.2,0,0,0,3,1.47,2.66,2.66,0,0,0,1-.32A4.38,4.38,0,0,0,10.7,20.78Z"/><path class="cls-6" d="M8.83,25.07c-1.32-1.75-2.58-2.66-3.54-2.56a1.42,1.42,0,0,0-.44.13c-.73,1.93.42,4.23,2.64,5.24a4.43,4.43,0,0,0,5.45-1.11l-.45.08A3.92,3.92,0,0,1,8.83,25.07Z"/></g></g></svg>