<svg xmlns="http://www.w3.org/2000/svg" viewBox="0 0 15.2 43.37"><defs><style>.cls-1{fill:#e47e62;}.cls-2{fill:#432e3b;}.cls-3{fill:#593d4f;}.cls-4{fill:#7a6472;}.cls-5{fill:#e6e6e6;}.cls-6{fill:#cac1c7;}</style></defs><g id="Layer_2" data-name="Layer 2"><g id="Ñëîé_1" data-name="Ñëîé 1"><path class="cls-1" d="M13.77,23h0a13.33,13.33,0,0,0,.7-4.28,13,13,0,0,0-.94-4.91H1.67a13,13,0,0,0-.94,4.91A13.33,13.33,0,0,0,1.43,23h0s.1.27.23.77H13.55A7.48,7.48,0,0,1,13.77,23Z"/><path class="cls-2" d="M7.6,43.37H1.69A5.2,5.2,0,0,1,.24,40.85H7.6Z"/><path class="cls-3" d="M4.85.24S4.85,8.62,3,11.42a.06.06,0,0,1,0,0,10.28,10.28,0,0,0-1.34,2.32H7.6V.24Z"/><path class="cls-4" d="M12.19,11.46a.06.06,0,0,1,0,0C10.36,8.62,10.36.24,10.36.24H7.6V13.78h5.93A10.28,10.28,0,0,0,12.19,11.46Z"/><path class="cls-4" d="M14.16,34.39h0a19.6,19.6,0,0,1-.61-10.65h-6V40.85H15a9.67,9.67,0,0,0,.24-2.11A9.44,9.44,0,0,0,14.16,34.39Z"/><path class="cls-3" d="M1.66,23.74A19.64,19.64,0,0,1,1,34.39H1a9.44,9.44,0,0,0-1,4.35,9.67,9.67,0,0,0,.24,2.11H7.6V23.74Z"/><path class="cls-2" d="M7.6,43.37h5.91A5.2,5.2,0,0,0,15,40.85H7.6Z"/><path class="cls-5" d="M10.85.87A.87.87,0,0,0,10,0H5.22a.87.87,0,0,0-.87.87V2.73h6.5Z"/><path class="cls-4" d="M5.8,36.37a.67.67,0,1,1-.66-.66A.67.67,0,0,1,5.8,36.37Z"/><path class="cls-3" d="M10.3,28.68A.67.67,0,1,1,9.64,28,.67.67,0,0,1,10.3,28.68Z"/><path class="cls-6" d="M8.49,30.94a.67.67,0,1,1-.67-.66A.67.67,0,0,1,8.49,30.94Z"/><path class="cls-6" d="M7,25.74a1.25,1.25,0,1,1-1.25-1.25A1.25,1.25,0,0,1,7,25.74Z"/><path class="cls-6" d="M10.48,25.74a.67.67,0,1,1-.66-.67A.67.67,0,0,1,10.48,25.74Z"/><path class="cls-6" d="M8.93,10.58a.67.67,0,1,1-.67-.67A.67.67,0,0,1,8.93,10.58Z"/></g></g></svg>